[Header]
FileType HTR
DataType HTRS
FileVersion 1
NumSegments 22
NumFrames 4
DataFrameRate 24
EulerRotationOrder ZYX
CalibrationUnits mm
RotationUnits Degrees
GlobalAxisofGravity Y
BoneLengthAxis Y
ScaleFactor 1.0
[SegmentNames&Hierarchy]
reference	GLOBAL
Hips	reference
Spine	Hips
Spine1	Spine
Neck	Spine1
Head	Neck
LeftShoulder	Spine1
LeftArm	LeftShoulder
LeftForeArm	LeftArm
LeftHand	LeftForeArm
RightShoulder	Spine1
RightArm	RightShoulder
RightForeArm	RightArm
RightHand	RightForeArm
LeftUpLeg	Hips
LeftLeg	LeftUpLeg
LeftFoot	LeftLeg
LeftToeBase	LeftFoot
RightUpLeg	Hips
RightLeg	RightUpLeg
RightFoot	RightLeg
RightToeBase	RightFoot
[BasePosition]
reference	0	0	0	0	0	0	1
Hips	0	0	0	0	0	0	1
Spine	0	0	0	0	-0	90	1
Spine1	0	0	0	0	0	0	1
Neck	0	0	0	-7.352327771	-7.352327771	90	1
Head	0	0	0	0	-0	90	1
LeftShoulder	0	0	0	0	0	0	1
LeftArm	0	0	0	0	0	0	1
LeftForeArm	0	0	0	0	0	0	1
LeftHand	0	0	0	0	0	0	1
RightShoulder	0	0	0	0	-0	180	1
RightArm	0	0	0	0	-0	180	1
RightForeArm	0	0	0	0	-0	180	1
RightHand	0	0	0	0	-0	180	1
LeftUpLeg	0	0	0	0	-0	-90	1
LeftLeg	0	0	0	0	-0	-90	1
LeftFoot	0	0	0	66.57146043	-66.57146043	-90	1
LeftToeBase	0	0	0	0	-90	0	1
RightUpLeg	0	0	0	0	-0	-90	1
RightLeg	0	0	0	0	-0	-90	1
RightFoot	0	0	0	66.57146043	-66.57146043	-90	1
RightToeBase	0	0	0	0	-90	0	1
[reference]
48	0	0	0	0	-0	0	1.0
49	0	0	0	0	-0	0	1.0
50	0	0	0	0	-0	0	1.0
51	0	0	0	0	-0	0	1.0
[Hips]
48	7.430984974	8.457839012	1.85360527	-5.647467136	-117.4284439	12.20637703	1.0
49	7.702799797	8.46512413	1.866978645	-7.160675049	-116.0468597	13.40080261	1.0
50	8.001459122	8.464575768	1.881125093	-6.712172985	-114.9110489	12.51043892	1.0
51	8.324455261	8.453632355	1.896562815	-4.273003578	-113.6918945	9.321650505	1.0
[Spine]
48	0	0.7457100153	0	-3.286047935	7.64195919	-87.09259033	1.0
49	0	0.7457100153	0	-2.742651463	7.959697247	-86.66789246	1.0
50	0	0.7457100153	0	-2.239910126	7.953141212	-86.78276825	1.0
51	0	0.7457100153	0	-2.343302727	7.454258919	-87.35032654	1.0
[Spine1]
48	0	2.140589952	0	3.03886652	2.475516081	2.011066198	1.0
49	0	2.140589952	0	1.912764072	2.590303898	2.27214241	1.0
50	0	2.140589952	0	1.108319879	2.600274563	2.330324888	1.0
51	0	2.140589952	0	2.445851564	2.459478855	1.39601171	1.0
[Neck]
48	0	2.32246995	0	-30.79902649	10.48624134	-93.49958801	1.0
49	0	2.32246995	0	-29.91118431	10.04682636	-94.76470947	1.0
50	0	2.32246995	0	-28.37215042	9.893665314	-96.01874542	1.0
51	0	2.32246995	0	-28.43125534	9.801198006	-97.36405945	1.0
[Head]
48	0	1.409579992	0.1818799973	2.396214247	4.071388245	-89.55406952	1.0
49	0	1.409579992	0.1818799973	3.583268881	3.840666533	-89.57758331	1.0
50	0	1.409579992	0.1818799973	3.207902908	3.833261251	-89.51425934	1.0
51	0	1.409579992	0.1818799973	2.416558743	4.021904469	-89.65003967	1.0
[LeftShoulder]
48	0.3668199778	1.946700096	-0.02662999928	-7.361761093	-13.09238052	5.413950443	1.0
49	0.3668199778	1.946700096	-0.02662999928	-6.294752121	-13.12194824	5.90705204	1.0
50	0.3668199778	1.946700096	-0.02662999928	-6.365091324	-13.32629299	5.407987118	1.0
51	0.3668199778	1.946700096	-0.02662999928	-7.512729168	-13.10947418	4.664375782	1.0
[LeftArm]
48	1.140689969	0	0	34.52219391	28.13977432	-49.5430336	1.0
49	1.140689969	0	0	34.18165588	28.26975632	-45.14171982	1.0
50	1.140689969	0	0	35.89450073	28.21374512	-44.14785385	1.0
51	1.140689969	0	0	35.87069321	27.24717522	-47.0414772	1.0
[LeftForeArm]
48	2.749800205	0	0	41.64486694	-55.88193512	-58.80952454	1.0
49	2.749800205	0	0	46.08100128	-51.27453613	-66.26232147	1.0
50	2.749800205	0	0	44.58365631	-51.89603043	-65.57330322	1.0
51	2.749800205	0	0	37.81283951	-53.52060318	-57.8507576	1.0
[LeftHand]
48	2.295179844	0	0	6.093768597	-25.73400116	9.894626617	1.0
49	2.295179844	0	0	9.741343498	-25.64925766	6.825905323	1.0
50	2.295179844	0	0	8.334697723	-23.14196968	7.036895275	1.0
51	2.295179844	0	0	4.714643002	-25.14233589	8.716363907	1.0
[RightShoulder]
48	-0.3601199985	1.946700096	-0.02662999928	-9.919488907	5.873760223	173.6839294	1.0
49	-0.3601199985	1.946700096	-0.02662999928	-8.979891777	5.07324028	174.5170898	1.0
50	-0.3601199985	1.946700096	-0.02662999928	-8.253032684	5.150742531	175.9529419	1.0
51	-0.3601199985	1.946700096	-0.02662999928	-8.148288727	5.789235115	176.1321869	1.0
[RightArm]
48	-1.140689969	0	0	67.46582031	13.83332634	-106.6162872	1.0
49	-1.140689969	0	0	67.88566589	15.36033154	-107.814743	1.0
50	-1.140689969	0	0	67.22480774	14.11334801	-108.2185669	1.0
51	-1.140689969	0	0	66.27713013	11.17424202	-106.7320633	1.0
[RightForeArm]
48	-2.749800205	0	0	-92.9101944	68.57367706	56.13533783	1.0
49	-2.749800205	0	0	-102.2303619	65.59662628	47.31213379	1.0
50	-2.749800205	0	0	-104.2939377	65.79003143	46.16483688	1.0
51	-2.749800205	0	0	-97.21664429	68.0641861	53.54540253	1.0
[RightHand]
48	-2.295179844	0	0	7.52327919	20.46359825	160.5630188	1.0
49	-2.295179844	0	0	6.369660378	20.56665993	163.6453247	1.0
50	-2.295179844	0	0	6.229689598	20.62343025	165.1769562	1.0
51	-2.295179844	0	0	6.501783371	20.8024559	165.0715942	1.0
[LeftUpLeg]
48	0.9094099998	0	0	-16.34679222	8.317948341	95.5740509	1.0
49	0.9094099998	0	0	-15.83631516	11.03722	95.24055481	1.0
50	0.9094099998	0	0	-16.21724129	10.44866753	95.23027039	1.0
51	0.9094099998	0	0	-18.66792297	6.392971039	95.44641113	1.0
[LeftLeg]
48	0	-4.498080254	0	25.59223747	-3.290817261	82.10165405	1.0
49	0	-4.498080254	0	21.11642456	-2.560812473	86.17062378	1.0
50	0	-4.498080254	0	18.55982971	-0.4118112624	87.06733704	1.0
51	0	-4.498080254	0	19.41548157	2.169794083	85.52448273	1.0
[LeftFoot]
48	0	-3.729400158	0	-78.76067352	111.9798279	-20.70145988	1.0
49	0	-3.729400158	0	-90.62950897	108.1136856	-38.04373169	1.0
50	0	-3.729400158	0	-92.42964172	106.6807861	-42.60852051	1.0
51	0	-3.729400158	0	-86.94807434	105.605011	-36.62329102	1.0
[LeftToeBase]
48	0	-0.5911099911	1.364109993	0	0	0	1.0
49	0	-0.5911099911	1.364109993	0	0	0	1.0
50	0	-0.5911099911	1.364109993	0	0	0	1.0
51	0	-0.5911099911	1.364109993	0	0	0	1.0
[RightUpLeg]
48	-0.9094099998	0	0	-15.88839245	-17.24335861	100.5611115	1.0
49	-0.9094099998	0	0	-8.3903265	-14.14096546	99.38738251	1.0
50	-0.9094099998	0	0	-3.287402868	-4.911901951	98.23255157	1.0
51	-0.9094099998	0	0	-0.5747902393	2.828594208	96.32954407	1.0
[RightLeg]
48	0	-4.498080254	0	49.40936279	1.195400953	77.25817871	1.0
49	0	-4.498080254	0	39.55309677	-0.06960596144	77.84696198	1.0
50	0	-4.498080254	0	32.32513046	0.5020614266	82.35068512	1.0
51	0	-4.498080254	0	25.28049469	-2.402852058	83.5200882	1.0
[RightFoot]
48	0	-3.729400158	0	54.75114822	61.46451569	105.0432434	1.0
49	0	-3.729400158	0	59.08506775	65.78146362	109.2935028	1.0
50	0	-3.729400158	0	56.25226212	60.88018799	103.8178406	1.0
51	0	-3.729400158	0	52.98976898	63.41492081	106.9608078	1.0
[RightToeBase]
48	0	-0.5911099911	1.364109993	0	0	0	1.0
49	0	-0.5911099911	1.364109993	0	0	0	1.0
50	0	-0.5911099911	1.364109993	0	0	0	1.0
51	0	-0.5911099911	1.364109993	0	0	0	1.0
[EndOfFile]
